<svg xmlns="http://www.w3.org/2000/svg" width="16" height="16" viewBox="0 0 16 16" fill="none">
  <path d="M10.3333 4.5H2.16667C1.85725 4.5 1.5605 4.62292 1.34171 4.84171C1.12292 5.0605 1 5.35725 1 5.66667V13.8333C1 14.1428 1.12292 14.4395 1.34171 14.6583C1.5605 14.8771 1.85725 15 2.16667 15H10.3333C10.6428 15 10.9395 14.8771 11.1583 14.6583C11.3771 14.4395 11.5 14.1428 11.5 13.8333V5.66667C11.5 5.35725 11.3771 5.0605 11.1583 4.84171C10.9395 4.62292 10.6428 4.5 10.3333 4.5ZM10.3333 13.8333H2.16667V5.66667H10.3333V13.8333ZM8.58333 1.58333C8.58333 1.42862 8.64479 1.28025 8.75419 1.17085C8.86358 1.06146 9.01196 1 9.16667 1H10.3333C10.488 1 10.6364 1.06146 10.7458 1.17085C10.8552 1.28025 10.9167 1.42862 10.9167 1.58333C10.9167 1.73804 10.8552 1.88642 10.7458 1.99581C10.6364 2.10521 10.488 2.16667 10.3333 2.16667H9.16667C9.01196 2.16667 8.86358 2.10521 8.75419 1.99581C8.64479 1.88642 8.58333 1.73804 8.58333 1.58333ZM15 2.16667V2.75C15 2.90471 14.9385 3.05308 14.8291 3.16248C14.7197 3.27187 14.5714 3.33333 14.4167 3.33333C14.262 3.33333 14.1136 3.27187 14.0042 3.16248C13.8948 3.05308 13.8333 2.90471 13.8333 2.75V2.16667H13.25C13.0953 2.16667 12.9469 2.10521 12.8375 1.99581C12.7281 1.88642 12.6667 1.73804 12.6667 1.58333C12.6667 1.42862 12.7281 1.28025 12.8375 1.17085C12.9469 1.06146 13.0953 1 13.25 1H13.8333C14.1428 1 14.4395 1.12292 14.6583 1.34171C14.8771 1.5605 15 1.85725 15 2.16667ZM15 5.66667V6.83333C15 6.98804 14.9385 7.13642 14.8291 7.24581C14.7197 7.35521 14.5714 7.41667 14.4167 7.41667C14.262 7.41667 14.1136 7.35521 14.0042 7.24581C13.8948 7.13642 13.8333 6.98804 13.8333 6.83333V5.66667C13.8333 5.51196 13.8948 5.36358 14.0042 5.25419C14.1136 5.14479 14.262 5.08333 14.4167 5.08333C14.5714 5.08333 14.7197 5.14479 14.8291 5.25419C14.9385 5.36358 15 5.51196 15 5.66667ZM15 9.75V10.3333C15 10.6428 14.8771 10.9395 14.6583 11.1583C14.4395 11.3771 14.1428 11.5 13.8333 11.5H13.25C13.0953 11.5 12.9469 11.4385 12.8375 11.3291C12.7281 11.2197 12.6667 11.0714 12.6667 10.9167C12.6667 10.762 12.7281 10.6136 12.8375 10.5042C12.9469 10.3948 13.0953 10.3333 13.25 10.3333H13.8333V9.75C13.8333 9.59529 13.8948 9.44692 14.0042 9.33752C14.1136 9.22812 14.262 9.16667 14.4167 9.16667C14.5714 9.16667 14.7197 9.22812 14.8291 9.33752C14.9385 9.44692 15 9.59529 15 9.75ZM4.5 2.75V2.16667C4.5 1.85725 4.62292 1.5605 4.84171 1.34171C5.0605 1.12292 5.35725 1 5.66667 1H6.25C6.40471 1 6.55308 1.06146 6.66248 1.17085C6.77187 1.28025 6.83333 1.42862 6.83333 1.58333C6.83333 1.73804 6.77187 1.88642 6.66248 1.99581C6.55308 2.10521 6.40471 2.16667 6.25 2.16667H5.66667V2.75C5.66667 2.90471 5.60521 3.05308 5.49581 3.16248C5.38642 3.27187 5.23804 3.33333 5.08333 3.33333C4.92862 3.33333 4.78025 3.27187 4.67085 3.16248C4.56146 3.05308 4.5 2.90471 4.5 2.75Z" fill="#3D3D3D"/>
</svg>