<svg xmlns="http://www.w3.org/2000/svg" width="24" height="24" viewBox="0 0 24 24" fill="none">
  <path d="M18.0376 19.2935H16.6663V18.1216H18.0376C18.1205 18.1216 18.2 18.1038 18.2738 18.0689L18.7761 19.1275C18.5441 19.2377 18.2956 19.2935 18.0376 19.2935ZM14.7913 19.2935H13.4989V18.1216H14.7913V19.2935ZM19.7619 16.9795H18.59V15.1045H19.7619V16.9795ZM19.7619 13.2295H18.59V11.3545H19.7619V13.2295ZM19.7619 9.47949H18.59V7.60449H19.7619V9.47949ZM18.4885 6.1127C18.3847 5.96668 18.2162 5.87949 18.0376 5.87949H17.2489V4.70762H18.0376C18.5952 4.70762 19.1209 4.97926 19.4438 5.43418L18.4885 6.1127ZM15.3739 5.87949H13.4989V4.70762H15.3739V5.87949ZM11.297 2.89355H12.7032V21.1073H11.297V19.5278H5.96258C5.14109 19.5278 4.47266 18.8594 4.47266 18.0379V5.96293C4.47266 5.14144 5.14109 4.47324 5.96258 4.47324H11.297V2.89355Z" fill="#3D3D3D"/>
</svg>