<svg width="24" height="24" viewBox="0 0 24 24" fill="none" xmlns="http://www.w3.org/2000/svg">
<path d="M18.0019 16C17.8703 16.0008 17.7398 15.9755 17.618 15.9258C17.4962 15.876 17.3854 15.8027 17.2919 15.71L14.2919 12.71C14.1057 12.5226 14.0011 12.2692 14.0011 12.005C14.0011 11.7408 14.1057 11.4874 14.2919 11.3L17.2919 8.3C17.4832 8.13617 17.7293 8.05057 17.981 8.06029C18.2326 8.07001 18.4714 8.17434 18.6495 8.35244C18.8276 8.53053 18.9319 8.76927 18.9416 9.02095C18.9513 9.27262 18.8657 9.5187 18.7019 9.71L16.4119 12L18.7019 14.29C18.8423 14.4293 18.9383 14.6071 18.9777 14.8009C19.0171 14.9947 18.9981 15.1958 18.9232 15.3789C18.8483 15.5619 18.7207 15.7186 18.5568 15.8292C18.3928 15.9397 18.1997 15.9992 18.0019 16ZM6.00191 16C5.80328 16.0012 5.60882 15.9431 5.4433 15.8333C5.27778 15.7235 5.14871 15.5669 5.07254 15.3835C4.99637 15.2 4.97656 14.9981 5.01563 14.8033C5.0547 14.6086 5.15088 14.4299 5.29191 14.29L7.59191 12L5.29191 9.71C5.10361 9.5217 4.99782 9.2663 4.99782 9C4.99782 8.7337 5.10361 8.4783 5.29191 8.29C5.48021 8.1017 5.73561 7.99591 6.00191 7.99591C6.26821 7.99591 6.52361 8.1017 6.71191 8.29L9.71191 11.29C9.89816 11.4774 10.0027 11.7308 10.0027 11.995C10.0027 12.2592 9.89816 12.5126 9.71191 12.7L6.71191 15.7C6.61929 15.7945 6.50885 15.8697 6.38698 15.9212C6.2651 15.9727 6.13422 15.9995 6.00191 16ZM12.0019 20C11.7367 20 11.4823 19.8946 11.2948 19.7071C11.1073 19.5196 11.0019 19.2652 11.0019 19V5C11.0019 4.73478 11.1073 4.48043 11.2948 4.29289C11.4823 4.10536 11.7367 4 12.0019 4C12.2671 4 12.5215 4.10536 12.709 4.29289C12.8966 4.48043 13.0019 4.73478 13.0019 5V19C13.0019 19.2652 12.8966 19.5196 12.709 19.7071C12.5215 19.8946 12.2671 20 12.0019 20Z" fill="#4F4F4F"/>
<path d="M21 13H15C14.7348 13 14.4804 12.8946 14.2929 12.7071C14.1054 12.5196 14 12.2652 14 12C14 11.7348 14.1054 11.4804 14.2929 11.2929C14.4804 11.1054 14.7348 11 15 11H21C21.2652 11 21.5196 11.1054 21.7071 11.2929C21.8946 11.4804 22 11.7348 22 12C22 12.2652 21.8946 12.5196 21.7071 12.7071C21.5196 12.8946 21.2652 13 21 13ZM9 13H3C2.73478 13 2.48043 12.8946 2.29289 12.7071C2.10536 12.5196 2 12.2652 2 12C2 11.7348 2.10536 11.4804 2.29289 11.2929C2.48043 11.1054 2.73478 11 3 11H9C9.26522 11 9.51957 11.1054 9.70711 11.2929C9.89464 11.4804 10 11.7348 10 12C10 12.2652 9.89464 12.5196 9.70711 12.7071C9.51957 12.8946 9.26522 13 9 13Z" fill="#4F4F4F"/>
</svg>
