<svg width="24" height="24" viewBox="0 0 24 24" fill="none" xmlns="http://www.w3.org/2000/svg">
<path d="M22.0959 15.8982L17.787 20.3177C17.6812 20.4201 17.548 20.4895 17.4034 20.5175C17.2589 20.5455 17.1093 20.5309 16.9729 20.4754C16.8365 20.4199 16.7192 20.3259 16.6353 20.205C16.5514 20.084 16.5044 19.9412 16.5002 19.794V17.9996H9.00019C8.90168 17.9996 8.80413 17.9803 8.71311 17.9426C8.62209 17.9049 8.53938 17.8497 8.46973 17.78C8.40007 17.7104 8.34483 17.6277 8.30716 17.5367C8.26949 17.4456 8.25013 17.3481 8.25019 17.2496V13.4996C8.25013 13.4011 8.26949 13.3035 8.30716 13.2125C8.34483 13.1215 8.40007 13.0388 8.46973 12.9691C8.53938 12.8995 8.62209 12.8442 8.71311 12.8065C8.80413 12.7689 8.90168 12.7495 9.00019 12.7496H16.5002V10.9551C16.5039 10.8077 16.5506 10.6646 16.6344 10.5433C16.7183 10.422 16.8357 10.3278 16.9723 10.2722C17.1088 10.2166 17.2587 10.2021 17.4034 10.2304C17.5481 10.2587 17.6814 10.3286 17.787 10.4315L22.0959 14.8509C22.2325 14.991 22.3089 15.1789 22.3089 15.3746C22.3089 15.5702 22.2325 15.7582 22.0959 15.8982ZM15.7502 10.4996V6.74958C15.7503 6.65107 15.7309 6.55352 15.6932 6.4625C15.6556 6.37147 15.6003 6.28877 15.5307 6.21912C15.461 6.14946 15.3783 6.09422 15.2873 6.05655C15.1963 6.01888 15.0987 5.99952 15.0002 5.99958H7.50019V4.20513C7.49629 4.05779 7.44954 3.91479 7.36567 3.7936C7.28179 3.67241 7.16442 3.57828 7.02791 3.52273C6.89139 3.46718 6.74165 3.45261 6.59698 3.4808C6.45232 3.50899 6.31901 3.57873 6.21334 3.68148L1.90452 8.10093C1.76788 8.24101 1.69141 8.42894 1.69141 8.62462C1.69141 8.82029 1.76788 9.00823 1.90452 9.1483L6.21334 13.5678C6.31916 13.6701 6.45245 13.7395 6.59699 13.7674C6.74153 13.7954 6.89108 13.7807 7.02744 13.7252C7.16379 13.6698 7.28108 13.5758 7.36501 13.4549C7.44895 13.3339 7.49591 13.1912 7.50019 13.044V11.2496H15.0002C15.0987 11.2496 15.1963 11.2303 15.2873 11.1926C15.3783 11.1549 15.461 11.0997 15.5307 11.03C15.6003 10.9604 15.6556 10.8777 15.6932 10.7867C15.7309 10.6956 15.7503 10.5981 15.7502 10.4996Z" fill="#3D3D3D"/>
</svg>
