<svg width="24" height="24" viewBox="0 0 24 24" fill="none" xmlns="http://www.w3.org/2000/svg">
<path d="M17.4673 8.68285C17.4673 8.8441 17.4603 9.00395 17.4465 9.16168C16.8751 8.99738 16.2774 8.9123 15.6664 8.9123C14.3361 8.9123 13.0677 9.3152 12.0003 10.0636C10.933 9.3152 9.66453 8.9123 8.33422 8.9123C7.7232 8.9123 7.12555 8.99738 6.55414 9.16168C6.54031 9.00395 6.53328 8.8441 6.53328 8.68285C6.53328 5.66832 8.98578 3.21582 12.0003 3.21582C15.0148 3.21582 17.4673 5.66832 17.4673 8.68285ZM11.1378 19.8454C11.1716 19.8792 11.2058 19.9127 11.2402 19.9455C10.3979 20.4764 9.40133 20.7836 8.33422 20.7836C5.31969 20.7836 2.86719 18.3311 2.86719 15.3166C2.86719 13.1993 4.07727 11.3592 5.84211 10.4517C6.13695 11.4843 6.69125 12.4307 7.47172 13.2114C8.0143 13.754 8.63703 14.1871 9.31344 14.5C9.27945 14.7686 9.26211 15.0414 9.26211 15.3166C9.26211 17.0273 9.9282 18.6356 11.1378 19.8454ZM6.71797 10.0936C7.22891 9.93512 7.77172 9.8498 8.33422 9.8498C9.40133 9.8498 10.3979 10.1571 11.2402 10.6879C11.2058 10.7207 11.1716 10.7543 11.1378 10.788C10.3573 11.5687 9.80328 12.5151 9.5082 13.5478C8.14977 12.8493 7.12016 11.5982 6.71797 10.0936ZM12.0003 11.2647C12.7698 11.9615 13.3407 12.8742 13.6163 13.9059C13.1054 14.0643 12.5626 14.1496 12.0003 14.1496C11.438 14.1496 10.8952 14.0643 10.3843 13.9059C10.6599 12.8742 11.2309 11.9615 12.0003 11.2647ZM12.0003 19.3687C10.895 18.3677 10.1996 16.9218 10.1996 15.3166C10.1996 15.1554 10.2066 14.9957 10.2205 14.838C10.7916 15.0021 11.3895 15.0871 12.0003 15.0871C12.6111 15.0871 13.209 15.0021 13.7802 14.838C13.794 14.9957 13.801 15.1554 13.801 15.3166C13.801 16.9218 13.1056 18.3677 12.0003 19.3687ZM12.8628 10.788C12.8291 10.7543 12.7948 10.7207 12.7604 10.6879C13.6027 10.1571 14.5993 9.8498 15.6664 9.8498C16.2289 9.8498 16.7717 9.93512 17.2827 10.0936C16.8805 11.5982 15.8509 12.8493 14.4924 13.5478C14.1973 12.5151 13.6433 11.5687 12.8628 10.788ZM21.1334 15.3166C21.1334 18.3311 18.6809 20.7836 15.6664 20.7836C14.5993 20.7836 13.6027 20.4764 12.7604 19.9455C12.7948 19.9127 12.8291 19.8792 12.8628 19.8454C14.0724 18.6356 14.7385 17.0273 14.7385 15.3166C14.7385 15.0414 14.7212 14.7686 14.6872 14.5C15.3636 14.1871 15.9863 13.754 16.5289 13.2114C17.3094 12.4307 17.8637 11.4843 18.1585 10.4517C19.9234 11.3592 21.1334 13.1993 21.1334 15.3166Z" fill="#3D3D3D"/>
</svg>
