<svg xmlns="http://www.w3.org/2000/svg" width="16" height="15" viewBox="0 0 16 15" fill="none">
  <path d="M8.04102 9.125C10.2847 9.125 12.1035 7.30616 12.1035 5.0625C12.1035 2.81884 10.2847 1 8.04102 1C5.79736 1 3.97852 2.81884 3.97852 5.0625C3.97852 7.30616 5.79736 9.125 8.04102 9.125Z" stroke="#3D3D3D" stroke-linejoin="round"/>
  <path d="M11.0215 14C13.2651 14 15.084 12.1812 15.084 9.9375C15.084 7.69384 13.2651 5.875 11.0215 5.875C8.77783 5.875 6.95898 7.69384 6.95898 9.9375C6.95898 12.1812 8.77783 14 11.0215 14Z" stroke="#3D3D3D" stroke-linejoin="round"/>
  <path d="M5.0625 14C7.30616 14 9.125 12.1812 9.125 9.9375C9.125 7.69384 7.30616 5.875 5.0625 5.875C2.81884 5.875 1 7.69384 1 9.9375C1 12.1812 2.81884 14 5.0625 14Z" stroke="#3D3D3D" stroke-linejoin="round"/>
</svg>