<svg width="32" height="32" viewBox="0 0 32 32" fill="none" xmlns="http://www.w3.org/2000/svg">
<path d="M24.3427 6.59967V11.5106C24.3427 11.7694 24.1327 11.9794 23.8739 11.9794H18.963C18.7733 11.9794 18.6023 11.865 18.5298 11.69C18.4573 11.5147 18.4973 11.3131 18.6314 11.179L20.3339 9.47654C19.0386 8.65529 17.5511 8.22436 15.9992 8.22436C11.5217 8.22436 7.87891 11.8669 7.87891 16.3444C7.87891 20.8219 11.5217 24.4647 15.9992 24.4647C16.7514 24.4647 17.4961 24.3622 18.212 24.1597L18.7217 25.9644C17.8398 26.2134 16.9239 26.3397 15.9992 26.3397C13.3292 26.3397 10.8192 25.3 8.93141 23.4122C7.04359 21.5244 6.00391 19.0144 6.00391 16.3444C6.00391 13.6747 7.04359 11.1647 8.93141 9.27686C10.8192 7.38904 13.3292 6.34936 15.9992 6.34936C18.0508 6.34936 20.0111 6.96186 21.6864 8.12404L23.5423 6.26811C23.6764 6.13404 23.878 6.09404 24.0533 6.16654C24.2283 6.23904 24.3427 6.40998 24.3427 6.59967ZM23.9727 17.89C23.8314 18.6237 23.5889 19.3344 23.2514 20.0019L24.9248 20.8475C25.3408 20.0247 25.6398 19.149 25.8139 18.2444L23.9727 17.89ZM21.9792 21.8381C21.472 22.39 20.892 22.8687 20.2558 23.2612L21.2402 24.8572C22.023 24.374 22.7361 23.7853 23.3595 23.1072L21.9792 21.8381Z" fill="#3D3D3D"/>
</svg>
