<svg xmlns="http://www.w3.org/2000/svg" width="25" height="24" viewBox="0 0 25 24" fill="none">
  <path d="M6.75 4.5C6.28587 4.5 5.84075 4.68437 5.51256 5.01256C5.18437 5.34075 5 5.78587 5 6.25V7.75C5 7.94891 4.92098 8.13968 4.78033 8.28033C4.63968 8.42098 4.44891 8.5 4.25 8.5C4.05109 8.5 3.86032 8.42098 3.71967 8.28033C3.57902 8.13968 3.5 7.94891 3.5 7.75V6.25C3.5 5.38805 3.84241 4.5614 4.4519 3.9519C5.0614 3.34241 5.88805 3 6.75 3H8.25C8.44891 3 8.63968 3.07902 8.78033 3.21967C8.92098 3.36032 9 3.55109 9 3.75C9 3.94891 8.92098 4.13968 8.78033 4.28033C8.63968 4.42098 8.44891 4.5 8.25 4.5H6.75ZM20 6.25C20 5.78587 19.8156 5.34075 19.4874 5.01256C19.1592 4.68437 18.7141 4.5 18.25 4.5H16.75C16.5511 4.5 16.3603 4.42098 16.2197 4.28033C16.079 4.13968 16 3.94891 16 3.75C16 3.55109 16.079 3.36032 16.2197 3.21967C16.3603 3.07902 16.5511 3 16.75 3H18.25C19.112 3 19.9386 3.34241 20.5481 3.9519C21.1576 4.5614 21.5 5.38805 21.5 6.25V7.75C21.5 7.94891 21.421 8.13968 21.2803 8.28033C21.1397 8.42098 20.9489 8.5 20.75 8.5C20.5511 8.5 20.3603 8.42098 20.2197 8.28033C20.079 8.13968 20 7.94891 20 7.75V6.25ZM20 17.75C20 18.2141 19.8156 18.6592 19.4874 18.9874C19.1592 19.3156 18.7141 19.5 18.25 19.5H16.75C16.5511 19.5 16.3603 19.579 16.2197 19.7197C16.079 19.8603 16 20.0511 16 20.25C16 20.4489 16.079 20.6397 16.2197 20.7803C16.3603 20.921 16.5511 21 16.75 21H18.25C19.112 21 19.9386 20.6576 20.5481 20.0481C21.1576 19.4386 21.5 18.612 21.5 17.75V16.25C21.5 16.0511 21.421 15.8603 21.2803 15.7197C21.1397 15.579 20.9489 15.5 20.75 15.5C20.5511 15.5 20.3603 15.579 20.2197 15.7197C20.079 15.8603 20 16.0511 20 16.25V17.75ZM5 17.75C5 18.716 5.784 19.5 6.75 19.5H8.25C8.44891 19.5 8.63968 19.579 8.78033 19.7197C8.92098 19.8603 9 20.0511 9 20.25C9 20.4489 8.92098 20.6397 8.78033 20.7803C8.63968 20.921 8.44891 21 8.25 21H6.75C5.88805 21 5.0614 20.6576 4.4519 20.0481C3.84241 19.4386 3.5 18.612 3.5 17.75V16.25C3.5 16.0511 3.57902 15.8603 3.71967 15.7197C3.86032 15.579 4.05109 15.5 4.25 15.5C4.44891 15.5 4.63968 15.579 4.78033 15.7197C4.92098 15.8603 5 16.0511 5 16.25V17.75ZM8.75 6C8.15326 6 7.58097 6.23705 7.15901 6.65901C6.73705 7.08097 6.5 7.65326 6.5 8.25V15.75C6.5 16.3467 6.73705 16.919 7.15901 17.341C7.58097 17.7629 8.15326 18 8.75 18H16.25C16.8467 18 17.419 17.7629 17.841 17.341C18.2629 16.919 18.5 16.3467 18.5 15.75V8.25C18.5 7.65326 18.2629 7.08097 17.841 6.65901C17.419 6.23705 16.8467 6 16.25 6H8.75ZM8 8.25C8 8.05109 8.07902 7.86032 8.21967 7.71967C8.36032 7.57902 8.55109 7.5 8.75 7.5H16.25C16.4489 7.5 16.6397 7.57902 16.7803 7.71967C16.921 7.86032 17 8.05109 17 8.25V15.75C17 15.9489 16.921 16.1397 16.7803 16.2803C16.6397 16.421 16.4489 16.5 16.25 16.5H8.75C8.55109 16.5 8.36032 16.421 8.21967 16.2803C8.07902 16.1397 8 15.9489 8 15.75V8.25Z" fill="black"/>
</svg>