<svg width="24" height="24" viewBox="0 0 24 24" fill="none" xmlns="http://www.w3.org/2000/svg">
<path d="M18.7857 20.8868H5.21539C4.05641 20.8868 3.11328 19.9439 3.11328 18.7847V5.21441C3.11328 4.05543 4.05617 3.1123 5.21539 3.1123H15.042V4.75293H5.21539C4.96086 4.75293 4.75391 4.95988 4.75391 5.21441V18.7847C4.75391 19.0393 4.96086 19.2462 5.21539 19.2462H18.7857C19.0402 19.2462 19.2472 19.0393 19.2472 18.7847V8.95832H20.8878V18.7847C20.8878 19.9439 19.9449 20.8868 18.7857 20.8868Z" fill="#3D3D3D"/>
<path d="M16.6439 11.9996C16.6439 12.1559 16.5405 12.2937 16.3903 12.3373L15.5234 12.589C14.1002 13.002 13.0041 14.0982 12.5909 15.5213L12.3391 16.3882C12.2955 16.5385 12.158 16.6418 12.0016 16.6418C11.8453 16.6418 11.7075 16.5385 11.6639 16.3882L11.4122 15.5213C10.9992 14.0982 9.90305 13.002 8.47992 12.589L7.61297 12.3373C7.46273 12.2937 7.35938 12.1559 7.35938 11.9996C7.35938 11.8432 7.46273 11.7057 7.61297 11.6621L8.47992 11.4104C9.90305 10.9971 10.9992 9.90098 11.4122 8.47785L11.6639 7.6109C11.7075 7.46066 11.8453 7.3573 12.0016 7.3573C12.158 7.3573 12.2955 7.46066 12.3391 7.6109L12.5909 8.47785C13.0041 9.90098 14.1002 10.9971 15.5234 11.4104L16.3903 11.6621C16.5405 11.7057 16.6439 11.8432 16.6439 11.9996ZM20.4202 5.58637C20.4202 5.7427 20.3168 5.88027 20.1666 5.92387L19.7388 6.04809C19.3205 6.16973 18.9982 6.49199 18.8766 6.91035L18.7526 7.33809C18.709 7.48832 18.5712 7.59168 18.4148 7.59168C18.2585 7.59168 18.1209 7.48832 18.0773 7.33809L17.9531 6.91035C17.8315 6.49199 17.5092 6.16973 17.0909 6.04809L16.6631 5.92387C16.5129 5.88027 16.4095 5.7427 16.4095 5.58637C16.4095 5.43004 16.5129 5.29223 16.6631 5.24863L17.0909 5.12465C17.5092 5.00301 17.8315 4.68074 17.9531 4.26238L18.0773 3.83465C18.1209 3.68441 18.2585 3.58105 18.4148 3.58105C18.5712 3.58105 18.709 3.68441 18.7526 3.83465L18.8766 4.26238C18.9982 4.68074 19.3205 5.00301 19.7388 5.12465L20.1666 5.24863C20.3168 5.29223 20.4202 5.43004 20.4202 5.58637Z" fill="#3D3D3D"/>
</svg>
