<svg xmlns="http://www.w3.org/2000/svg" width="24" height="24" viewBox="0 0 24 24" fill="none">
  <path d="M4.615 21C4.155 21 3.771 20.846 3.463 20.538C3.15433 20.2293 3 19.845 3 19.385V8.615C3 8.155 3.15433 7.771 3.463 7.463C3.771 7.15433 4.155 7 4.615 7H6.615V4.615C6.615 4.155 6.76933 3.771 7.078 3.463C7.386 3.15433 7.77 3 8.23 3H19.384C19.844 3 20.228 3.15433 20.536 3.463C20.8447 3.771 20.999 4.155 20.999 4.615V15.77C20.999 16.23 20.845 16.6143 20.537 16.923C20.229 17.2317 19.8447 17.386 19.384 17.386H17V19.386C17 19.846 16.846 20.23 16.538 20.538C16.2293 20.8467 15.845 21.001 15.385 21.001L4.615 21ZM8.231 16.385H19.385C19.5383 16.385 19.6793 16.3207 19.808 16.192C19.936 16.064 20 15.9233 20 15.77V4.615C20 4.46167 19.936 4.32067 19.808 4.192C19.6793 4.064 19.5383 4 19.385 4H8.23C8.07667 4 7.936 4.064 7.808 4.192C7.67933 4.32067 7.615 4.46167 7.615 4.615V15.77C7.615 15.924 7.67933 16.065 7.808 16.193C7.936 16.3217 8.077 16.385 8.231 16.385Z" fill="black"/>
</svg>