 <svg
      xmlns="http://www.w3.org/2000/svg"
      width="106"
      height="22"
      fill="none"
      viewBox="0 0 106 22"
    >
      <path
        fill="#343434"
        d="M6.52 2.8c1.08 0 2 .173 2.76.52.76.347 1.34.847 1.74 1.5.4.653.6 1.447.6 2.38 0 .933-.2 1.727-.6 2.38-.4.653-.98 1.153-1.74 1.5s-1.68.52-2.76.52H3.9V16H.46V2.8h6.06zm-.54 6.22c.72 0 1.26-.147 1.62-.44.373-.307.56-.767.56-1.38 0-.613-.187-1.067-.56-1.36-.36-.307-.9-.46-1.62-.46H3.9v3.64h2.08zm7.6 6.98V1.76h3.4v6.06c.293-.667.713-1.167 1.26-1.5.546-.347 1.18-.52 1.9-.52.693 0 1.293.133 1.8.4.52.267.926.66 1.22 1.18.293.52.44 1.173.44 1.96V16h-3.4v-5.72c0-.72-.134-1.213-.4-1.48-.254-.28-.594-.42-1.02-.42-.32 0-.62.08-.9.24-.28.16-.5.413-.66.76-.16.347-.24.8-.24 1.36V16h-3.4zM30.741 5.8c1.053 0 1.973.207 2.76.62.8.4 1.42.993 1.86 1.78.453.773.68 1.707.68 2.8 0 1.093-.227 2.033-.68 2.82a4.436 4.436 0 01-1.86 1.78c-.787.4-1.707.6-2.76.6-1.027 0-1.94-.2-2.74-.6a4.565 4.565 0 01-1.88-1.78c-.44-.787-.66-1.727-.66-2.82 0-1.093.22-2.027.66-2.8a4.402 4.402 0 011.88-1.78c.8-.413 1.713-.62 2.74-.62zm0 2.42c-.387 0-.72.093-1 .28-.28.187-.494.487-.64.9-.147.413-.22.947-.22 1.6 0 .653.073 1.187.22 1.6.146.4.36.7.64.9.28.187.613.28 1 .28.4 0 .74-.093 1.02-.28.28-.2.493-.5.64-.9.146-.413.22-.947.22-1.6 0-.653-.074-1.187-.22-1.6-.147-.413-.36-.713-.64-.9-.28-.187-.62-.28-1.02-.28zm11.334-5.4v9.62c0 .48.113.827.34 1.04.24.2.566.3.98.3.32 0 .593-.033.82-.1.24-.08.453-.193.64-.34l.36 2.1c-.334.24-.754.427-1.26.56-.507.133-1.027.2-1.56.2-.76 0-1.42-.107-1.98-.32a2.632 2.632 0 01-1.28-1.02c-.294-.467-.447-1.087-.46-1.86V3.76l3.4-.94zM45.056 6v2.42h-8.1V6h8.1zm6.33-.2c1.054 0 1.974.207 2.76.62.8.4 1.42.993 1.86 1.78.454.773.68 1.707.68 2.8 0 1.093-.226 2.033-.68 2.82a4.436 4.436 0 01-1.86 1.78c-.786.4-1.706.6-2.76.6-1.026 0-1.94-.2-2.74-.6a4.564 4.564 0 01-1.88-1.78c-.44-.787-.66-1.727-.66-2.82 0-1.093.22-2.027.66-2.8a4.401 4.401 0 011.88-1.78c.8-.413 1.714-.62 2.74-.62zm0 2.42c-.386 0-.72.093-1 .28-.28.187-.493.487-.64.9-.146.413-.22.947-.22 1.6 0 .653.074 1.187.22 1.6.147.4.36.7.64.9.28.187.614.28 1 .28.4 0 .74-.093 1.02-.28.28-.2.494-.5.64-.9.147-.413.22-.947.22-1.6 0-.653-.073-1.187-.22-1.6-.146-.413-.36-.713-.64-.9-.28-.187-.62-.28-1.02-.28z"
      ></path>
      <path
        fill="#4B4B4B"
        d="M69.799 16h-1.82l-7.32-11.14V16h-1.82V1.9h1.82l7.32 11.16V1.9h1.82V16zm2.607-14.2c0-.333.113-.6.34-.8.226-.213.526-.32.9-.32.373 0 .673.107.9.32.226.2.34.467.34.8s-.114.607-.34.82c-.227.2-.527.3-.9.3-.374 0-.674-.1-.9-.3a1.076 1.076 0 01-.34-.82zm2.14 3.22V16h-1.82V5.02h1.82zm8.706-.18c1.28 0 2.313.413 3.1 1.24.786.813 1.18 1.993 1.18 3.54V16h-1.82V9.78c0-1.093-.28-1.933-.84-2.52-.56-.587-1.32-.88-2.28-.88-1 0-1.8.327-2.4.98-.6.64-.9 1.58-.9 2.82V16h-1.82V5.02h1.82v2.6c.28-.893.773-1.58 1.48-2.06.72-.48 1.546-.72 2.48-.72zm8.111-1.92c-.373 0-.68-.1-.92-.3a1.076 1.076 0 01-.34-.82c0-.333.114-.6.34-.8.24-.213.547-.32.92-.32.36 0 .654.107.88.32.227.2.34.467.34.8s-.113.607-.34.82c-.226.2-.52.3-.88.3zm-3.06 16.68h.76c.48 0 .827-.107 1.04-.32.227-.213.34-.58.34-1.1V5.02h1.84v13.22c0 1.973-1 2.96-3 2.96h-.98v-1.6zM99.687 4.88c1.066 0 1.966.267 2.7.8a4.157 4.157 0 011.56 2.14v-2.8h1.82V16h-1.82v-2.8a4.157 4.157 0 01-1.56 2.14c-.734.533-1.634.8-2.7.8-.974 0-1.84-.227-2.6-.68-.76-.453-1.36-1.1-1.8-1.94-.427-.853-.64-1.853-.64-3s.213-2.147.64-3c.44-.853 1.04-1.507 1.8-1.96.76-.453 1.626-.68 2.6-.68zm.52 1.62c-1.12 0-2.02.36-2.7 1.08-.667.707-1 1.687-1 2.94s.333 2.24 1 2.96c.68.707 1.58 1.06 2.7 1.06.72 0 1.36-.167 1.92-.5.573-.333 1.02-.8 1.34-1.4.32-.613.48-1.32.48-2.12s-.16-1.507-.48-2.12a3.318 3.318 0 00-1.34-1.4c-.56-.333-1.2-.5-1.92-.5z"
      ></path>
    </svg>