<svg width="24" height="24" viewBox="0 0 24 24" fill="none" xmlns="http://www.w3.org/2000/svg">
<path d="M10.2574 4.51641V5.68828H12.1324V4.51641H10.2574ZM14.0074 4.51641V5.68828H15.8824V4.51641H14.0074ZM4.51641 8.11898V9.99398H5.68828V8.11898H4.51641ZM4.51641 11.869V13.744H5.68828V11.869H4.51641ZM8.11898 18.3131V19.485H9.99398V18.3131H8.11898ZM11.869 18.3131V19.485H13.744V18.3131H11.869ZM18.3131 10.2574V12.1324H19.485V10.2574H18.3131ZM18.3131 14.0074V15.8824H19.485V14.0074H18.3131ZM6.85898 17.494V20.3041C6.85898 20.4982 6.70148 20.6557 6.50742 20.6557H3.69727C3.5032 20.6557 3.3457 20.4982 3.3457 20.3041V17.494C3.3457 17.2999 3.5032 17.1424 3.69727 17.1424H4.51641V15.619H5.68828V17.1424H6.50742C6.70148 17.1424 6.85898 17.2999 6.85898 17.494ZM6.85898 4.51641H8.38242V5.68828H6.85898V6.50742C6.85898 6.70148 6.70148 6.85898 6.50742 6.85898H3.69727C3.5032 6.85898 3.3457 6.70148 3.3457 6.50742V3.69727C3.3457 3.5032 3.5032 3.3457 3.69727 3.3457H6.50742C6.70148 3.3457 6.85898 3.5032 6.85898 3.69727V4.51641ZM20.6557 17.494V20.3041C20.6557 20.4982 20.4982 20.6557 20.3041 20.6557H17.494C17.2999 20.6557 17.1424 20.4982 17.1424 20.3041V19.485H15.619V18.3131H17.1424V17.494C17.1424 17.2999 17.2999 17.1424 17.494 17.1424H20.3041C20.4982 17.1424 20.6557 17.2999 20.6557 17.494ZM20.6557 3.69727V6.50742C20.6557 6.70148 20.4982 6.85898 20.3041 6.85898H19.485V8.38242H18.3131V6.85898H17.494C17.2999 6.85898 17.1424 6.70148 17.1424 6.50742V3.69727C17.1424 3.5032 17.2999 3.3457 17.494 3.3457H20.3041C20.4982 3.3457 20.6557 3.5032 20.6557 3.69727Z" fill="#3D3D3D"/>
</svg>
