<svg width="32" height="32" viewBox="0 0 32 32" fill="none" xmlns="http://www.w3.org/2000/svg">
<path d="M23.068 9.27686C24.9559 11.1647 25.9955 13.6747 25.9955 16.3444C25.9955 19.0144 24.9559 21.5244 23.068 23.4122C21.1802 25.3 18.6702 26.3397 16.0002 26.3397C15.0755 26.3397 14.1596 26.2134 13.2777 25.9644L13.7874 24.1597C14.5034 24.3622 15.248 24.4647 16.0002 24.4647C20.4777 24.4647 24.1205 20.8219 24.1205 16.3444C24.1205 11.8669 20.4777 8.22436 16.0002 8.22436C14.4484 8.22436 12.9609 8.65529 11.6655 9.47654L13.368 11.179C13.5021 11.3131 13.5421 11.5147 13.4696 11.69C13.3971 11.865 13.2262 11.9794 13.0365 11.9794H8.12555C7.8668 11.9794 7.6568 11.7694 7.6568 11.5106V6.59967C7.6568 6.40998 7.77117 6.23904 7.94617 6.16654C8.12148 6.09404 8.32305 6.13404 8.45711 6.26811L10.313 8.12404C11.9884 6.96186 13.9487 6.34936 16.0002 6.34936C18.6702 6.34936 21.1802 7.38904 23.068 9.27686ZM8.0268 17.89L6.18555 18.2444C6.35961 19.149 6.65867 20.0247 7.07461 20.8475L8.74805 20.0019C8.41055 19.3344 8.16805 18.6237 8.0268 17.89ZM10.0202 21.8381L8.63992 23.1072C9.26336 23.7853 9.97648 24.374 10.7593 24.8572L11.7437 23.2612C11.1074 22.8687 10.5274 22.39 10.0202 21.8381Z" fill="#3D3D3D"/>
</svg>
