 <svg
      xmlns="http://www.w3.org/2000/svg"
      width="25"
      height="24"
      fill="none"
      viewBox="0 0 25 24"
    >
      <path
        fill="#838383"
        d="M15.871 14.646a.5.5 0 00-.707.708l.707-.708zm5.293 6.708a.5.5 0 00.707-.708l-.707.708zM10.518 16.5a6.5 6.5 0 01-6.5-6.5h-1a7.5 7.5 0 007.5 7.5v-1zm-6.5-6.5a6.5 6.5 0 016.5-6.5v-1a7.5 7.5 0 00-7.5 7.5h1zm6.5-6.5a6.5 6.5 0 016.5 6.5h1a7.5 7.5 0 00-7.5-7.5v1zm6.5 6.5a6.5 6.5 0 01-6.5 6.5v1a7.5 7.5 0 007.5-7.5h-1zm-1.854 5.354l6 6 .707-.708-6-6-.707.708z"
      ></path>
    </svg>